<?xml version="1.0" encoding="UTF-8" standalone="no"?>
<!-- Created with Inkscape (http://www.inkscape.org/) -->

<svg
   xmlns:dc="http://purl.org/dc/elements/1.1/"
   xmlns:cc="http://creativecommons.org/ns#"
   xmlns:rdf="http://www.w3.org/1999/02/22-rdf-syntax-ns#"
   xmlns:svg="http://www.w3.org/2000/svg"
   xmlns="http://www.w3.org/2000/svg"
   xmlns:sodipodi="http://sodipodi.sourceforge.net/DTD/sodipodi-0.dtd"
   xmlns:inkscape="http://www.inkscape.org/namespaces/inkscape"
   id="svg3390"
   version="1.1"
   inkscape:version="0.91 r13725"
   width="800"
   height="1000"
   viewBox="0 0 800 1000"
   sodipodi:docname="816f04410b5aa5f20f7e9e26f866a614.jpg.svg"
   inkscape:export-filename="/media/isaac/ISAAC/816f04410b5aa5f20f7e9e26f866a614.png"
   inkscape:export-xdpi="90"
   inkscape:export-ydpi="90">
  <metadata
     id="metadata3396">
    <rdf:RDF>
      <cc:Work
         rdf:about="">
        <dc:format>image/svg+xml</dc:format>
        <dc:type
           rdf:resource="http://purl.org/dc/dcmitype/StillImage" />
        <dc:title></dc:title>
      </cc:Work>
    </rdf:RDF>
  </metadata>
  <defs
     id="defs3394" />
  <sodipodi:namedview
     pagecolor="#ffffff"
     bordercolor="#666666"
     borderopacity="1"
     objecttolerance="10"
     gridtolerance="10"
     guidetolerance="10"
     inkscape:pageopacity="0"
     inkscape:pageshadow="2"
     inkscape:window-width="1600"
     inkscape:window-height="840"
     id="namedview3392"
     showgrid="false"
     inkscape:zoom="0.4695189"
     inkscape:cx="69.430994"
     inkscape:cy="566.09945"
     inkscape:window-x="0"
     inkscape:window-y="0"
     inkscape:window-maximized="1"
     inkscape:current-layer="g3400" />
  <g
     id="g3400">
    <g
       id="g3539"
       transform="translate(-36.144616,-69.277108)" />
    <path
       style="fill:#916f6f"
       d="m 244.26693,656.90736 c -27.31747,-2.6914 -34.16171,-18.48794 -34.10269,-78.70969 0.0233,-25.83557 2.8738,-60.49072 6.32998,-77.0114 6.70137,-32.03337 5.83687,-38.18022 -4.0671,-28.91864 -8.78338,8.21365 -25.85373,-13.43653 -29.43704,-37.33484 -6.12179,-40.82815 29.98746,-80.53193 91.48804,-100.59526 9.35294,-3.05123 16.9022,-8.44419 16.9022,-12.07447 0,-3.60826 -21.14206,-19.36895 -46.98232,-35.0238 -25.84026,-15.65484 -50.09823,-33.59362 -53.90661,-39.86402 -3.98873,-6.56731 -7.04687,-21.1664 -7.21325,-34.43513 -0.25347,-20.21158 1.35585,-24.69097 13.13215,-36.5524 16.08407,-16.20037 74.56542,-37.70114 113.39797,-41.69093 30.13554,-3.09624 36.16545,-10.37665 17.56891,-21.21242 -21.78742,-12.69498 -20.29351,-21.911348 8.7011,-53.678143 16.21866,-17.76935 29.76211,-28.70929 35.60966,-28.764294 9.19119,-0.08639 13.33476,-1.782983 33.78601,-13.83315 7.08034,-4.171834 11.14703,-4.379226 14.38265,-0.733425 2.48113,2.795659 8.71524,5.083056 13.85359,5.083056 5.13829,0 10.50182,2.113814 11.9189,4.697373 1.41709,2.58356 6.89907,4.697374 12.18225,4.697374 10.58447,0 42.92761,35.807029 53.86034,59.628718 6.75807,14.725441 3.27511,24.924091 -8.51196,24.924091 -2.98076,0 -5.41955,3.02087 -5.41955,6.71305 0,4.44398 8.10234,8.45292 23.97108,11.86053 78.35692,16.8262 96.28713,23.89285 113.60214,44.77312 8.15351,9.83236 10.42222,17.53129 10.42222,35.36822 0,28.87199 -11.92655,43.99504 -56.12125,71.16276 -17.28396,10.6249 -36.75155,23.53112 -43.26136,28.68045 l -11.83595,9.36245 35.64624,15.10849 c 34.01853,14.41863 69.0704,40.73594 77.2817,58.0239 7.09917,14.94653 -3.79544,57.60718 -18.13647,71.01797 -5.3293,4.98366 -8.38891,4.617 -17.47973,-2.09465 -10.91171,-8.05597 -10.99739,-8.02689 -8.74512,2.96738 14.18278,69.23275 16.08109,85.21157 14.83283,124.85445 -1.02015,32.3992 -3.08868,45.23307 -8.22195,51.01131 -8.94722,10.07147 -44.66467,17.78619 -51.73503,11.17441 -2.87714,-2.69046 -12.20416,-26.46641 -20.72687,-52.83542 -8.52267,-26.36895 -21.83299,-66.39399 -29.57857,-88.94453 -16.19526,-47.1512 -15.97369,-45.90056 -8.13297,-45.90056 9.85508,0 28.29092,29.36327 60.40169,96.20325 16.75548,34.87727 32.13087,62.25285 34.16758,60.83451 2.03666,-1.41827 3.70304,-21.1402 3.70304,-43.82648 0,-47.12466 -10.3975,-99.56386 -27.10907,-136.72323 -14.43157,-32.08982 -12.04957,-39.80311 9.20822,-29.81704 8.69898,4.08642 20.96261,11.54939 27.25243,16.58437 24.83839,19.88298 27.77045,-10.6776 3.63367,-37.87418 -16.58223,-18.6844 -47.11309,-34.37552 -84.43301,-43.39385 -18.02309,-4.35529 -24.12558,-3.34747 -58.12727,9.59945 -47.14774,17.9526 -60.58425,18.01851 -109.04381,0.53478 -37.65679,-13.58617 -39.29598,-13.76939 -66.25624,-7.40825 -50.17033,11.83748 -91.16906,43.65143 -91.16906,70.74478 0,17.02626 7.23301,18.4298 25.35152,4.91954 9.09288,-6.78023 22.33106,-13.63441 29.41816,-15.23152 12.07909,-2.72204 12.69229,-2.1988 9.79649,8.35986 -1.69904,6.19501 -5.44513,16.54822 -8.3246,23.00711 -19.67474,44.13153 -36.30899,183.19776 -21.91307,183.19776 3.97002,0 9.96545,-10.98562 16.0226,-29.35862 11.99931,-36.39746 20.39309,-53.07052 48.47863,-96.29624 12.17016,-18.73082 25.12888,-34.056 28.79711,-34.056 4.64007,0 5.81699,2.50141 3.86769,8.22041 -1.54103,4.52121 -9.29135,30.41552 -17.22297,57.54288 -7.93162,27.12737 -19.19599,60.94849 -25.03194,75.15807 -22.87382,55.69409 -18.29919,50.97695 -46.72196,48.17671 z M 459.32037,335.82983 c 12.11599,-5.6803 21.33995,-12.65729 20.49767,-15.50443 -0.84231,-2.84714 -10.75535,-6.84746 -22.02908,-8.88954 -23.80104,-4.31128 -102.17575,0.0151 -107.48102,5.93313 -2.01473,2.24741 2.41102,7.52787 10.03045,11.96757 40.09706,23.36359 60.1868,24.68145 98.98198,6.49327 z m 114.4216,-66.71156 c 41.20808,-21.6978 53.23364,-34.30981 53.23364,-55.82962 0,-25.59249 -22.64155,-36.82842 -108.39103,-53.7893 -48.74027,-9.64067 -144.8659,-11.00236 -187.59985,-2.65743 -83.38556,16.28306 -95.90211,19.22816 -106.79729,25.12924 -16.70812,9.04958 -25.30064,28.08149 -20.21608,44.77774 3.21193,10.54711 13.12088,18.50935 48.75477,39.17639 l 44.72358,25.93882 118.43037,-0.99172 118.4304,-0.99171 z M 440.06205,256.01676 c -9.41231,-4.13858 -9.63952,-5.49109 -6.8352,-40.68854 1.59545,-20.02421 4.52457,-38.36511 6.5092,-40.75739 7.75954,-9.35365 124.73912,14.27499 136.66397,27.60473 11.11719,12.42681 1.4278,15.44193 -29.54929,9.19518 -41.67891,-8.40486 -78.29278,-8.51831 -78.29278,-0.24239 0,4.63239 9.95894,7.25579 36.47775,9.60895 44.84875,3.97966 64.56501,8.50196 66.56668,15.26825 2.30495,7.79145 -7.03749,10.3127 -58.2809,15.72828 -25.76639,2.72314 -50.59997,5.76398 -55.18575,6.75754 -4.58576,0.99352 -12.71893,-0.11994 -18.07368,-2.47447 z m -127.83731,-4.45612 c -48.53103,-3.62322 -61.76935,-7.11045 -59.25522,-15.60901 1.77742,-6.00818 24.17024,-10.99007 71.76187,-15.96546 18.57897,-1.9423 32.92803,-5.56721 32.39595,-8.18399 -1.5803,-7.77224 -26.79416,-7.93891 -68.08341,-0.45002 -21.46545,3.89335 -39.97278,6.01438 -41.12729,4.71343 -12.10804,-13.64295 65.58891,-43.95554 113.04648,-44.10387 15.34166,-0.0478 29.00609,1.9405 30.36539,4.41873 1.35933,2.47819 3.58271,17.91418 4.94084,34.30217 2.01368,24.29751 1.16334,31.26796 -4.60763,37.77057 -7.5341,8.48918 -7.41517,8.48456 -79.43698,3.10756 z M 466.47352,116.79485 c 2.29287,-4.08085 7.45186,-10.73768 11.46444,-14.79302 9.28289,-9.381826 9.02843,-14.307195 -1.47383,-28.525942 -9.15167,-12.390173 -18.60915,-14.536049 -62.10169,-14.090853 -40.91555,0.419012 -48.13659,1.528182 -55.64115,8.547945 -7.46357,6.981431 -9.5263,28.783475 -2.72324,28.783475 2.29287,0 4.16888,5.989145 4.16888,13.309215 0,7.32013 0.79942,14.21005 1.77651,15.31101 0.97712,1.10098 23.95808,1.29887 51.06885,0.43967 39.32454,-1.24613 50.13535,-3.06235 53.46123,-8.98161 z"
       id="path3402"
       inkscape:connector-curvature="0"
       sodipodi:nodetypes="scsssssssssssssssssssssssssscsssssssssssssssssssssssssssssssssssscssssssssssscccscssssssssscccssssccssscccsssssssscc" />
    <path
       style="opacity:1;fill:#916f6f;fill-opacity:1;fill-rule:nonzero;stroke:#000000;stroke-width:3.4636023px;stroke-linecap:butt;stroke-linejoin:miter;stroke-opacity:0"
       d="m 617.9454,488.60597 c 0,0 105.21464,74.12279 108.39981,133.42704 4.75929,88.61236 -19.74167,118.6032 -81.81846,158.6001 -87.29704,22.98638 -151.53111,19.96961 -214.7344,8.31943 -57.68013,-8.64813 -79.33517,-13.06536 -109.91007,-13.47985 -27.60089,1.08648 -56.95601,12.90783 -70.83806,16.72472 -11.75784,6.81898 -4.66096,7.14708 -21.19273,15.56712 -18.2312,5.41796 -47.64191,6.19058 -86.60566,6.59035 -33.03185,2.49224 -56.551304,15.91044 -66.23755,-17.49735 -13.509956,-15.89578 -16.221237,-28.59348 -12.089566,-34.95054 6.930919,-10.66425 13.776497,-8.66287 26.788688,-20.5706 7.489089,-6.40391 12.235338,-15.22371 18.170838,-30.71966 10.60881,-10.49254 14.49285,-2.74454 23.8751,-12.30753 45.47987,-37.41267 64.90265,-21.14198 79.74756,-18.56913 30.56447,-10.43617 29.77511,-8.57699 57.41351,-11.4074 27.63843,-2.83038 77.74405,-9.83522 118.60087,-2.75924 40.85674,7.07594 122.79335,32.95049 195.31083,9.1766 48.91044,-19.4712 50.83839,-55.16348 51.9156,-80.68445 1.07723,-25.52101 5.43567,-39.34719 -16.79631,-105.45961 z"
       id="path4900"
       inkscape:connector-curvature="0"
       sodipodi:nodetypes="cscccccccsccccssczc" />
    <flowRoot
       xml:space="preserve"
       id="flowRoot6427"
       style="font-style:normal;font-variant:normal;font-weight:normal;font-stretch:normal;font-size:90px;line-height:125%;font-family:'STIX Math';-inkscape-font-specification:'STIX Math';letter-spacing:0px;word-spacing:0px;fill:#000000;fill-opacity:1;stroke:none;stroke-width:1px;stroke-linecap:butt;stroke-linejoin:miter;stroke-opacity:1"
       transform="matrix(1.3829118,0,0,1.4092939,-105.62319,-316.63219)"><flowRegion
         id="flowRegion6429"><rect
           id="rect6431"
           width="459.33734"
           height="125"
           x="156.62651"
           y="808.73492"
           style="font-style:normal;font-variant:normal;font-weight:normal;font-stretch:normal;font-size:90px;font-family:'STIX Math';-inkscape-font-specification:'STIX Math';fill:#000000" /></flowRegion><flowPara
         id="flowPara6433"
         style="font-style:normal;font-variant:normal;font-weight:normal;font-stretch:normal;font-size:105px;font-family:'Abyssinica SIL';-inkscape-font-specification:'Abyssinica SIL';text-align:center;text-anchor:middle;fill:#000000">PyTatuy</flowPara></flowRoot>    <ellipse
       style="opacity:1;fill:#ffffff;fill-opacity:1;fill-rule:nonzero;stroke:#000000;stroke-width:0.32856217;stroke-opacity:0"
       id="path6453"
       cx="-97.840363"
       cy="769.15332"
       rx="12.616822"
       ry="10.595991"
       transform="matrix(0.9339551,-0.35739037,0.34574618,0.93832808,0,0)" />
  </g>
</svg>
